<svg width="49" height="49" viewBox="0 0 49 49" fill="none" xmlns="http://www.w3.org/2000/svg">
<path d="M20.7803 6.12602C18.7913 6.10284 16.8175 6.47458 14.9732 7.2197C13.1289 7.96483 11.4507 9.06852 10.036 10.4668C8.62133 11.8652 7.49816 13.5303 6.73159 15.3658C5.96503 17.2013 5.57031 19.1707 5.57031 21.1598C5.57031 23.149 5.96503 25.1184 6.73159 26.9539C7.49816 28.7894 8.62133 30.4545 10.036 31.8528C11.4507 33.2511 13.1289 34.3548 14.9732 35.1C16.8175 35.8451 18.7913 36.2168 20.7803 36.1936C24.7372 36.1475 28.5164 34.5433 31.2981 31.7289C34.0799 28.9146 35.64 25.117 35.64 21.1598C35.64 17.2027 34.0799 13.4051 31.2981 10.5907C28.5164 7.77635 24.7372 6.17213 20.7803 6.12602Z" stroke="#9A9A9A" stroke-width="1.36111" stroke-linecap="round"/>
<path d="M31.9902 32.3828L42.4905 42.879" stroke="#9A9A9A" stroke-width="1.36111" stroke-linecap="round"/>
<path d="M20.2781 23.5849C20.2201 22.5541 20.1692 21.6176 20.1257 20.7755C20.0821 19.9335 20.0386 19.1712 19.995 18.4889C19.9515 17.792 19.9152 17.1749 19.8861 16.6378C19.8716 16.0861 19.8571 15.6142 19.8426 15.2222C19.8426 14.8157 19.8426 14.4745 19.8426 14.1986C19.8426 13.8502 19.9224 13.5889 20.0821 13.4146C20.2563 13.2259 20.4886 13.1315 20.779 13.1315C21.0694 13.1315 21.2944 13.2259 21.4541 13.4146C21.6283 13.5889 21.7155 13.8502 21.7155 14.1986C21.7155 14.4745 21.7082 14.8157 21.6937 15.2222C21.6937 15.6142 21.6792 16.0861 21.6501 16.6378C21.6356 17.1749 21.6066 17.792 21.563 18.4889C21.5195 19.1712 21.4759 19.9335 21.4323 20.7755C21.3888 21.6176 21.338 22.5541 21.2799 23.5849H20.2781ZM20.779 28.3106C20.4161 28.3106 20.1184 28.2018 19.8861 27.984C19.6683 27.7662 19.5595 27.4758 19.5595 27.1129C19.5595 26.7644 19.6683 26.4741 19.8861 26.2418C20.1039 26.0095 20.4015 25.8933 20.779 25.8933C21.142 25.8933 21.4323 26.0095 21.6501 26.2418C21.8679 26.4595 21.9768 26.7499 21.9768 27.1129C21.9768 27.4613 21.8679 27.7517 21.6501 27.984C21.4323 28.2018 21.142 28.3106 20.779 28.3106Z" fill="#9A9A9A"/>
</svg>
